HIERARCHY
ROOT Hips
{
	OFFSET 0.00000 0.00000 0.00000
	CHANNELS 6 Xposition Yposition Zposition Zrotation Yrotation Xrotation 
	JOINT LHipJoint
	{
		OFFSET 0 0 0
		CHANNELS 3 Zrotation Yrotation Xrotation
		JOINT LeftHip
		{
			OFFSET 1.74857 -1.85566 0.69197
			CHANNELS 3 Zrotation Yrotation Xrotation
			JOINT LeftKnee
			{
				OFFSET 2.40003 -6.59403 0.00000
				CHANNELS 3 Zrotation Yrotation Xrotation
				JOINT LeftAnkle
				{
					OFFSET 2.82169 -7.75254 0.00000
					CHANNELS 3 Zrotation Yrotation Xrotation
					JOINT LeftToe
					{
						OFFSET 0.16466 -0.45240 2.26890
						CHANNELS 3 Zrotation Yrotation Xrotation
						End Site
						{
							OFFSET 0.00000 -0.00000 1.16486
						}
					}
				}
			}
		}
	}
	JOINT RHipJoint
	{
		OFFSET 0 0 0
		CHANNELS 3 Zrotation Yrotation Xrotation
		JOINT RightHip
		{
			OFFSET -1.64169 -1.85566 0.69197
			CHANNELS 3 Zrotation Yrotation Xrotation
			JOINT RightKnee
			{
				OFFSET -2.41814 -6.64379 0.00000
				CHANNELS 3 Zrotation Yrotation Xrotation
				JOINT RightAnkle
				{
					OFFSET -2.80588 -7.70911 0.00000
					CHANNELS 3 Zrotation Yrotation Xrotation
					JOINT RightToe
					{
						OFFSET -0.19098 -0.52472 2.25401
						CHANNELS 3 Zrotation Yrotation Xrotation
						End Site
						{
							OFFSET -0.00000 -0.00000 1.16333
						}
					}
				}
			}
		}
	}
	JOINT lowerback
	{
		OFFSET 0 0 0
		CHANNELS 3 Zrotation Yrotation Xrotation
		JOINT Chest
		{
			OFFSET -0.02828 2.14690 -0.11061
			CHANNELS 3 Zrotation Yrotation Xrotation
			JOINT Chest2
			{
				OFFSET -0.00167 2.15299 0.00759
				CHANNELS 3 Zrotation Yrotation Xrotation
				JOINT lowerneck
				{
					OFFSET 0 0 0
					CHANNELS 3 Zrotation Yrotation Xrotation
					JOINT Neck
					{
						OFFSET -0.09296 1.90118 0.07197
						CHANNELS 3 Zrotation Yrotation Xrotation
						JOINT Head
						{
							OFFSET 0.08490 1.89526 -0.24604
							CHANNELS 3 Zrotation Yrotation Xrotation
							End Site
							{
								OFFSET 0.03186 1.92109 -0.09483
							}
						}
					}
				}
				JOINT LeftCollar
				{
					OFFSET 0 0 0
					CHANNELS 3 Zrotation Yrotation Xrotation
					JOINT LeftShoulder
					{
						OFFSET 3.21569 1.44644 -0.03720
CHANNELS 3 Zrotation Xrotation Yrotation
						JOINT LeftElbow
						{
OFFSET 0 -5.476510 -0.000000
CHANNELS 3 Zrotation Xrotation Yrotation
							JOINT LeftWrist
							{
OFFSET 0 -3.090580 -0.000000
CHANNELS 3 Zrotation Xrotation Yrotation
								JOINT lhand
								{
									OFFSET 0 0 0
CHANNELS 3 Zrotation Xrotation Yrotation
									JOINT LFingers
									{
OFFSET 0 -0.771610 -0.000000
CHANNELS 3 Zrotation Xrotation Yrotation
										End Site
										{
OFFSET 0 -0.622090 -0.000000
										}
									}
								}
								JOINT LThumb
								{
OFFSET 0 0.000000 0.000000
CHANNELS 3 Zrotation Xrotation Yrotation
									End Site
									{
OFFSET 0 -0.631590 0.631590
									}
								}
							}
						}
					}
				}
				JOINT RightCollar
				{
					OFFSET 0 0 0
					CHANNELS 3 Zrotation Yrotation Xrotation
					JOINT RightShoulder
					{
						OFFSET -3.38693 1.28904 -0.07093
CHANNELS 3 Zrotation Xrotation Yrotation
						JOINT RightElbow
						{
OFFSET 0 -5.141820 -0.000000
CHANNELS 3 Zrotation Xrotation Yrotation
							JOINT RightWrist
							{
OFFSET 0 -3.355650 -0.000000
CHANNELS 3 Zrotation Xrotation Yrotation
								JOINT rhand
								{
									OFFSET 0 0 0
CHANNELS 3 Zrotation Xrotation Yrotation
									JOINT RFingers
									{
OFFSET 0 -0.801040 -0.000000
CHANNELS 3 Zrotation Xrotation Yrotation
										End Site
										{
OFFSET 0 -0.645820 -0.000000
										}
									}
								}
								JOINT RThumb
								{
OFFSET 0 0.000000 0.000000
CHANNELS 3 Zrotation Xrotation Yrotation
									End Site
									{
OFFSET 0 -0.655680 0.655680
									}
								}
							}
						}
					}
				}
			}
		}
	}
}
MOTION
Frames: 6
Frame Time: 0.008333333333333333
-0.003951 17.914116 -0.940619 2.361916 0.026767 2.052893 0.000000 0.000000 0.000000 -21.121635 -7.444166 -7.508632 1.772106 8.374355 23.857046 0.970834 3.551791 -20.216756 0.639890 -5.117122 -14.242990 0.000000 0.000000 0.000000 15.830948 7.406724 -9.418047 -2.247470 -9.363527 26.939158 -0.864377 -6.699634 -21.228196 -0.404383 4.082540 -11.308949 -0.411196 2.209750 5.390091 -0.204179 2.913630 0.875776 -0.187223 1.454846 -2.127289 -5.882383 -4.964943 -1.190492 3.329150 -6.618491 4.978352 1.916958 -3.338396 2.121909 0.000000 0.000000 0.000000 15.114240 9.284230 -66.837963 76.468415 -59.296713 48.308963 13.563642 -4.280636 -18.906412 0.000000 0.000000 0.000000 -7.125000 0.000000 0.000000 -14.278116 48.852688 1.382488 0.000000 0.000000 0.000000 -12.799250 10.941280 55.568348 -83.867796 -59.857414 -54.691914 -25.994488 -45.805712 -25.575389 0.000000 0.000000 0.000000 7.125000 0.000000 0.000000 2.239224 1.965096 2.162759
-0.009064 17.910430 -0.953188 2.301466 0.191913 2.029303 0.000000 0.000000 0.000000 -21.034342 -7.487658 -7.727251 1.817499 8.475177 24.166895 0.955516 3.640784 -20.121993 0.734532 -5.474701 -15.267803 0.000000 0.000000 0.000000 15.906012 7.464772 -9.456226 -2.232434 -9.334352 26.846843 -0.863421 -6.915525 -21.377358 -0.394610 4.033420 -11.170774 -0.350865 2.167230 5.389912 -0.180292 2.861102 0.901165 -0.191911 1.428312 -2.099211 -5.905102 -4.987945 -1.397440 3.471696 -6.647947 5.191296 1.960568 -3.350050 2.238676 0.000000 0.000000 0.000000 15.273958 8.770004 -66.823684 75.287463 -59.166058 47.294247 13.944055 -4.363408 -18.714920 0.000000 0.000000 0.000000 -7.125000 0.000000 0.000000 -13.851664 48.719127 1.293753 0.000000 0.000000 0.000000 -12.958215 9.972317 54.308855 -83.423095 -59.835892 -54.307355 -26.051066 -45.977218 -25.606546 0.000000 0.000000 0.000000 7.125000 0.000000 0.000000 2.209486 1.920007 2.135839
-0.014264 17.908979 -0.961750 2.227868 0.248925 1.965078 0.000000 0.000000 0.000000 -20.918175 -7.503241 -7.786584 1.837336 8.518671 24.300935 0.948958 3.665982 -20.073902 0.777390 -5.629104 -15.711969 0.000000 0.000000 0.000000 16.048089 7.476051 -9.419856 -2.271814 -9.410664 27.088670 -0.836221 -7.012042 -21.196919 -0.439658 4.254582 -11.793953 -0.351503 2.105322 5.417777 -0.119378 2.779908 0.868734 -0.125309 1.387965 -2.151112 -5.767995 -4.956501 -1.458709 3.312707 -6.602302 5.432352 1.882343 -3.329044 2.313762 0.000000 0.000000 0.000000 15.380452 8.270595 -65.729303 73.741195 -58.977014 45.967795 13.816829 -4.119715 -18.707140 0.000000 0.000000 0.000000 -7.125000 0.000000 0.000000 -13.967988 48.693081 1.295641 0.000000 0.000000 0.000000 -13.220164 8.951870 53.171934 -82.164836 -59.766546 -53.219849 -26.106926 -45.476100 -25.674399 0.000000 0.000000 0.000000 7.125000 0.000000 0.000000 2.185340 1.835982 2.115726
-0.014110 17.907410 -0.970820 2.239845 0.322200 1.808524 0.000000 0.000000 0.000000 -20.948162 -7.416329 -7.656705 1.837300 8.518710 24.300951 0.973690 3.497181 -20.213730 0.713744 -5.399068 -15.050366 0.000000 0.000000 0.000000 16.061432 7.448952 -9.193802 -2.244701 -9.358181 26.922233 -0.838251 -7.083211 -21.269342 -0.408918 4.105199 -11.372950 -0.380748 2.096009 5.361791 -0.089839 2.766928 0.946891 -0.073560 1.381809 -2.042380 -5.607710 -4.953730 -1.581359 3.212868 -6.592240 5.442810 1.818654 -3.322020 2.327224 0.000000 0.000000 0.000000 15.992432 6.928382 -64.289488 71.580814 -58.678371 44.119283 14.528124 -3.805958 -19.103493 0.000000 0.000000 0.000000 -7.125000 0.000000 0.000000 -13.441758 49.189840 1.411934 0.000000 0.000000 0.000000 -13.831253 7.495896 52.082082 -79.473394 -59.577057 -50.896671 -26.573297 -44.490980 -26.062276 0.000000 0.000000 0.000000 7.125000 0.000000 0.000000 1.960749 1.322541 1.916047
-0.016914 17.909618 -0.994967 2.301517 0.392225 1.803992 0.000000 0.000000 0.000000 -20.992307 -7.419835 -7.749722 1.831498 8.505859 24.261493 0.960096 3.423990 -20.046527 0.683593 -5.286272 -14.726905 0.000000 0.000000 0.000000 15.982940 7.445282 -9.329162 -2.271167 -9.409402 27.084701 -0.847231 -6.958732 -21.259672 -0.379859 3.958262 -10.959244 -0.444722 2.103294 5.073408 -0.118435 2.774413 0.983273 -0.055076 1.386080 -1.845555 -5.795880 -4.951442 -1.488338 3.443643 -6.600501 5.436770 1.929692 -3.325473 2.327868 0.000000 0.000000 0.000000 17.373172 3.439197 -63.349505 67.741437 -58.042068 40.850330 16.271412 -2.943057 -22.671559 0.000000 0.000000 0.000000 -7.125000 0.000000 0.000000 -13.174504 53.016062 2.634458 0.000000 0.000000 0.000000 -14.885980 4.816512 51.662095 -73.457728 -58.938839 -45.725182 -29.402309 -41.382208 -26.678224 0.000000 0.000000 0.000000 7.125000 0.000000 0.000000 0.372761 0.005325 0.372539
-0.026576 17.908435 -1.049324 2.357185 0.201182 1.578194 0.000000 0.000000 0.000000 -21.012651 -7.064981 -7.809808 1.829910 8.502396 24.250788 0.940714 3.331269 -19.812623 0.644708 -5.136024 -14.297041 0.000000 0.000000 0.000000 15.937493 7.566441 -9.385341 -2.290409 -9.446487 27.202144 -0.825834 -7.002649 -21.092416 -0.377050 3.943497 -10.917883 -0.656250 2.199536 5.028531 -0.088955 2.892580 1.085842 0.089825 1.445938 -1.727504 -5.707533 -4.972484 -1.558903 3.220042 -6.620379 5.779071 1.835788 -3.340107 2.441256 0.000000 0.000000 0.000000 18.931538 -2.748842 -63.045157 62.676825 -56.980539 36.577447 17.889595 -1.765965 -23.901742 0.000000 0.000000 0.000000 -7.125000 0.000000 0.000000 -12.101964 54.540637 2.873847 0.000000 0.000000 0.000000 -16.440849 -0.278489 52.480902 -62.511996 -56.935191 -36.440652 -32.701040 -35.663197 -25.890022 0.000000 0.000000 0.000000 7.125000 0.000000 0.000000 -1.717389 0.016418 -1.717467
